<svg height="512" viewBox="0 0 128 128" width="512" xmlns="http://www.w3.org/2000/svg" fill="rgb(247, 55, 55)"><g><path d="m102.812 18.669h-21.362l-.708-7.318a6.724 6.724 0 0 0 -6.718-6.1h-20.048a6.724 6.724 0 0 0 -6.718 6.1l-.708 7.318h-21.362a6.757 6.757 0 0 0 -6.75 6.75v8.022a1.749 1.749 0 0 0 1.75 1.75h3.537l3.506 81.1a6.737 6.737 0 0 0 6.744 6.458h60.05a6.737 6.737 0 0 0 6.744-6.458l3.506-81.1h3.537a1.749 1.749 0 0 0 1.75-1.75v-8.022a6.757 6.757 0 0 0 -6.75-6.75zm-52.071-6.981a3.238 3.238 0 0 1 3.235-2.938h20.048a3.238 3.238 0 0 1 3.235 2.938l.675 6.981h-3.571v-5.718a1.751 1.751 0 0 0 -1.75-1.75h-17.226a1.751 1.751 0 0 0 -1.75 1.75v5.718h-3.571zm6.4 6.981v-3.969h13.722v3.968zm40.131 97.471a3.243 3.243 0 0 1 -3.247 3.11h-60.05a3.243 3.243 0 0 1 -3.247-3.11l-3.5-80.949h73.544zm8.79-84.449h-84.124v-6.272a3.253 3.253 0 0 1 3.25-3.25h77.624a3.254 3.254 0 0 1 3.25 3.25z"/><path d="m71.106 104.326h.017a1.75 1.75 0 0 0 1.749-1.735l.456-50.71a1.749 1.749 0 0 0 -1.734-1.765h-.016a1.751 1.751 0 0 0 -1.75 1.734l-.456 50.71a1.751 1.751 0 0 0 1.734 1.766z"/><path d="m85.319 104.325h.048a1.751 1.751 0 0 0 1.749-1.7l1.367-50.71a1.75 1.75 0 1 0 -3.5-.095l-1.367 50.71a1.75 1.75 0 0 0 1.703 1.795z"/><path d="m56.877 104.326h.017a1.751 1.751 0 0 0 1.734-1.766l-.456-50.71a1.751 1.751 0 0 0 -1.75-1.734h-.016a1.749 1.749 0 0 0 -1.734 1.765l.456 50.71a1.75 1.75 0 0 0 1.749 1.735z"/><path d="m42.633 104.326h.048a1.75 1.75 0 0 0 1.7-1.8l-1.367-50.71a1.75 1.75 0 0 0 -3.5.095l1.367 50.71a1.751 1.751 0 0 0 1.752 1.705z"/></g></svg>